<svg aria-hidden="true" style="position:absolute;width:0;height:0" xmlns="http://www.w3.org/2000/svg" overflow="hidden"><defs><symbol id="icon-cross" viewBox="0 0 40 40"><path d="m29.6667 12.88-1.88-1.88-7.4534 7.4533L12.88 11 11 12.88l7.4533 7.4533L11 27.7867l1.88 1.88 7.4533-7.4534 7.4534 7.4534 1.88-1.88-7.4534-7.4534 7.4534-7.4533Z"/></symbol><symbol id="icon-menu" viewBox="0 0 40 40"><path d="M8 14.6667V12h24v2.6667H8Zm0 6.6666h24v-2.6666H8v2.6666ZM8 28h24v-2.6667H8V28Z"/></symbol><symbol id="icon-send" viewBox="0 0 24 24"><path d="M24 0 0 13.5l7.67 2.8407L19.5 5.25l-8.9983 12.1396.0073.0027-.009-.0027v6.6105l4.3013-5.0181 5.4488 2.0181L24 0Z"/></symbol><symbol id="icon-email" viewBox="0 0 32 32"><path d="M26.667 5.333H5.334c-1.467 0-2.652 1.2-2.652 2.667l-.014 16c0 1.467 1.2 2.667 2.667 2.667h21.333c1.467 0 2.667-1.2 2.667-2.667V8c0-1.467-1.2-2.667-2.667-2.667zm-.534 5.668-9.426 5.892c-.201.126-.446.2-.708.2s-.506-.075-.713-.204l.006.003L5.866 11c-.336-.201-.557-.562-.557-.975 0-.625.507-1.132 1.132-1.132.233 0 .449.07.629.19l-.004-.003 8.933 5.586 8.933-5.588a1.12 1.12 0 0 1 .624-.188c.625 0 1.132.507 1.132 1.132 0 .413-.221.775-.552.972l-.005.003z"/></symbol><symbol id="icon-phone" viewBox="0 0 32 32"><path d="m24.882 19.774-3.268-.373c-.09-.011-.194-.018-.3-.018-.707 0-1.347.287-1.81.75l-2.368 2.368c-3.669-1.894-6.585-4.81-8.427-8.372l-.051-.108 2.382-2.377c.463-.463.75-1.103.75-1.81 0-.106-.006-.21-.019-.312l.001.012-.373-3.243c-.155-1.287-1.24-2.276-2.557-2.276H6.613c-1.454 0-2.663 1.209-2.574 2.661.683 10.987 9.47 19.762 20.444 20.444 1.452.089 2.663-1.12 2.663-2.574v-2.238c0-1.308-.985-2.386-2.253-2.532l-.012-.001z"/></symbol><symbol id="icon-check" viewBox="0 0 16 15"><path d="m3.957 7.752-.069-.066-.069.065-.888.842-.076.072.076.073 3.496 3.334.069.066.069-.066 7.504-7.158.076-.073-.076-.072-.882-.841-.069-.066-.069.066-6.553 6.246-2.539-2.422Z"/></symbol><symbol id="icon-person" viewBox="0 0 32 32"><path d="M16 16c2.946 0 5.333-2.388 5.333-5.333S18.945 5.334 16 5.334c-2.946 0-5.333 2.388-5.333 5.333S13.055 16 16 16zm0 2.667c-3.561 0-10.667 1.787-10.667 5.333v1.333c0 .732.599 1.333 1.333 1.333h18.667c.732 0 1.333-.601 1.333-1.333V24c0-3.547-7.108-5.333-10.667-5.333z"/></symbol><symbol id="icon-facebook" viewBox="0 0 32 32"><path d="M21.328 5.312h2.923V.224C23.019.081 21.591 0 20.144 0h-.157.008c-4.213 0-7.099 2.65-7.099 7.52V12H8.25v5.688h4.646V32h5.699V17.69h4.459l.709-5.688h-5.17V8.08c0-1.643.443-2.768 2.734-2.768z"/></symbol><symbol id="icon-instagram" viewBox="0 0 32 32"><path d="M31.968 9.408c-.074-1.701-.349-2.869-.742-3.882-.424-1.111-1.054-2.059-1.85-2.837l-.001-.001A7.9057 7.9057 0 0 0 26.597.861l-.054-.018C25.524.449 24.362.176 22.661.101 20.949.019 20.405 0 16.059 0c-4.344 0-4.888.019-6.595.094-1.699.074-2.869.349-3.88.742-1.112.424-2.06 1.054-2.839 1.85l-.001.001c-.791.78-1.418 1.724-1.825 2.778l-.018.054C.506 6.538.232 7.7.157 9.401c-.082 1.712-.101 2.256-.101 6.602 0 4.344.019 4.888.094 6.595.075 1.701.35 2.869.744 3.882.426 1.11 1.055 2.057 1.849 2.837l.001.001c.8.813 1.77 1.443 2.832 1.843 1.019.395 2.182.67 3.882.744 1.707.075 2.251.094 6.595.094 4.346 0 4.89-.019 6.595-.094 1.701-.074 2.869-.349 3.882-.742 2.157-.85 3.833-2.526 4.664-4.628l.019-.055c.394-1.019.669-2.182.744-3.882.075-1.707.093-2.251.093-6.595s-.006-4.888-.08-6.595zm-2.88 13.066c-.07 1.563-.333 2.406-.55 2.97-.552 1.399-1.64 2.486-3.004 3.024l-.036.012c-.56.219-1.411.482-2.968.55-1.688.075-2.194.094-6.464.094-4.269 0-4.782-.019-6.464-.094-1.563-.069-2.406-.331-2.97-.55-.721-.269-1.334-.676-1.836-1.192l-.001-.001a4.9782 4.9782 0 0 1-1.184-1.803L3.6 25.45c-.218-.563-.48-1.413-.549-2.97-.075-1.688-.094-2.195-.094-6.464 0-4.27.019-4.784.094-6.464.069-1.563.331-2.406.549-2.97.269-.722.678-1.337 1.198-1.837l.002-.002a4.972 4.972 0 0 1 1.806-1.182l.034-.011c.56-.219 1.411-.48 2.968-.55 1.688-.074 2.195-.093 6.464-.093 4.275 0 4.782.019 6.464.093 1.563.069 2.406.331 2.97.55.693.256 1.325.662 1.837 1.194.531.52.938 1.144 1.195 1.84.218.56.48 1.411.549 2.968.075 1.688.094 2.194.094 6.464 0 4.269-.019 4.768-.094 6.458z"/><path d="M16.059 7.782c-4.539.002-8.218 3.682-8.219 8.221v.002c0 4.541 3.681 8.222 8.222 8.222s8.222-3.681 8.222-8.222c0-4.541-3.681-8.222-8.222-8.222h-.002zm0 13.552c-2.945 0-5.332-2.388-5.332-5.333s2.388-5.333 5.333-5.333h.001c2.946 0 5.334 2.388 5.334 5.334s-2.388 5.334-5.334 5.334zM26.525 7.458c0 1.06-.86 1.92-1.92 1.92s-1.92-.86-1.92-1.92.86-1.92 1.92-1.92 1.92.86 1.92 1.92z"/></symbol><symbol id="icon-linkedin" viewBox="0 0 32 32"><path d="M31.992 32H32V20.262c0-5.741-1.237-10.163-7.947-10.163-3.227 0-5.392 1.77-6.277 3.45h-.093v-2.914h-6.365v21.363h6.627V21.42c0-2.786.528-5.48 3.978-5.48 3.398 0 3.448 3.179 3.448 5.658V32h6.621zM.528 10.635h6.635V32H.528V10.635zM3.843 0C1.72 0 0 1.721 0 3.843c0 2.12 1.722 3.878 3.843 3.878 2.12 0 3.842-1.757 3.842-3.878S5.965.002 3.844 0z"/></symbol><symbol id="icon-twitter" viewBox="0 0 32 32"><path d="M32 6.078c-1.1.493-2.376.857-3.713 1.028l-.068.007c1.36-.817 2.382-2.078 2.873-3.579l.013-.046c-1.197.722-2.591 1.273-4.076 1.573l-.084.014c-1.2-1.279-2.9-2.076-4.787-2.076-3.622 0-6.558 2.936-6.558 6.558v.004c0 .52.043 1.021.152 1.496-5.454-.266-10.28-2.88-13.522-6.861-.564.949-.899 2.092-.902 3.313v.001c0 2.272 1.171 4.286 2.914 5.451-1.091-.03-2.107-.325-2.994-.823l.033.017v.072c.003 3.165 2.236 5.807 5.213 6.44l.043.008c-.499.136-1.071.215-1.662.215h-.061.003c-.419 0-.843-.024-1.242-.112.85 2.598 3.261 4.509 6.13 4.57-2.215 1.746-5.045 2.8-8.122 2.8H1.57h.001-.062c-.531 0-1.055-.034-1.569-.099l.061.006c2.826 1.846 6.287 2.944 10.004 2.944h.063-.003c12.072 0 18.672-10 18.672-18.669 0-.288-.01-.57-.024-.848 1.299-.936 2.39-2.064 3.258-3.355l.03-.047z"/></symbol><symbol id="icon-envelope" viewBox="0 0 43 32"><path d="M38.667 0H4C1.795 0 0 1.795 0 4v24c0 2.205 1.795 4 4 4h34.667c2.205 0 4-1.795 4-4V4c0-2.205-1.795-4-4-4zm0 2.667c.181 0 .355.037.512.104L21.334 18.238 3.489 2.771c.151-.065.327-.104.512-.104h34.667zm0 26.666H4c-.736 0-1.333-.597-1.333-1.333V5.587l17.792 15.421c.233.203.539.327.875.327s.642-.124.876-.328l-.002.001L40 5.587V28c0 .736-.597 1.333-1.333 1.333z"/></symbol><symbol id="icon-smartphone" viewBox="0 0 20 32"><path d="M17 0H3C1.346 0 0 1.346 0 3v26c0 1.654 1.346 3 3 3h14c1.654 0 3-1.346 3-3V3c0-1.654-1.346-3-3-3zM3 2h14c.552 0 1 .448 1 1v21H2V3c0-.552.448-1 1-1zm14 28H3c-.552 0-1-.448-1-1v-3h16v3c0 .552-.448 1-1 1z"/><path d="M4.708 27.478c.18.163.293.399.293.66s-.113.497-.292.659l-.001.001c-.186.17-.435.275-.708.275s-.522-.104-.709-.275l.001.001c-.18-.163-.293-.399-.293-.66s.113-.497.292-.659l.001-.001c.186-.17.435-.275.708-.275s.522.104.709.275l-.001-.001z"/></symbol><symbol id="icon-antenna" viewBox="0 0 32 32"><path fill="var(--color1, #212121)" d="m30.766 22.08-8.457-8.503.96-4.571c.229.046.457.137.777.137h.025c1.187 0 2.149-.962 2.149-2.149s-.962-2.149-2.149-2.149-2.149.962-2.149 2.149c0 .245.041.481.117.701l-.005-.015-4.983.594L8.96.137C8.869.046 8.731 0 8.594 0s-.274.046-.366.137L6.719 1.646c-.229.229-.229.549 0 .777l.823.777c-1.129 2.053-1.794 4.499-1.794 7.1 0 4.161 1.7 7.925 4.444 10.635l.002.002-.046.549v6.217H3.702c-1.464 0-2.651 1.187-2.651 2.651v1.051c0 .32.274.549.549.549h24.549c.274 0 .503-.229.503-.549v-1.051c0-1.463-1.189-2.651-2.651-2.651h-6.4V24.96c.899.191 1.932.3 2.991.3 2.586 0 5.02-.653 7.146-1.803l-.08.039.869.823c.091.091.229.137.366.137s.274-.046.366-.137l1.509-1.509c.229-.229.229-.549 0-.777zM23.314 6.217c.186-.169.434-.272.706-.272.581 0 1.051.471 1.051 1.051 0 .555-.431 1.01-.976 1.049h-.003c-.021.002-.046.002-.072.002-.581 0-1.051-.471-1.051-1.051 0-.309.133-.586.345-.779l.001-.001zm-1.234 3.52-.594 2.926-1.189-1.143 1.783-1.783zm-.594-.914-1.92 1.92-1.509-1.509 3.429-.411zM24 28.8c.914 0 1.6.731 1.6 1.6v.549H2.149V30.4c0-.914.686-1.6 1.6-1.6H24zm-7.451-2.149v1.097H11.2v-1.097h5.349zM11.2 25.6v-4.069c0-1.28 1.189-2.331 2.651-2.331 1.509 0 2.697 1.051 2.697 2.331V25.6h-5.349zm6.4-1.691v-2.423c0-1.829-1.691-3.383-3.749-3.383-1.326 0-2.56.64-3.246 1.783-2.369-2.481-3.827-5.85-3.827-9.559 0-2.319.57-4.505 1.578-6.426l-.036.076L26.926 22.72c-1.816.94-3.965 1.492-6.242 1.492-1.093 0-2.157-.127-3.177-.367l.094.019zm11.291-.686-.731-.823L8.594 2.743l-.823-.686.777-.777 7.909 8L29.714 22.4l-.777.777z"/><path fill="var(--color2, #2196f3)" d="M13.897 20.251c-.884 0-1.6.716-1.6 1.6s.716 1.6 1.6 1.6c.884 0 1.6-.716 1.6-1.6s-.716-1.6-1.6-1.6zm.366 2.012a.55.55 0 0 1-.409.183c-.303 0-.549-.246-.549-.549s.244-.547.546-.549h.003c.303 0 .549.246.549.549 0 .141-.053.269-.14.366z"/></symbol><symbol id="icon-astronaut" viewBox="0 0 32 32"><path fill="var(--color2, #2196f3)" d="M32 4.526c-.091-.183-.274-.32-.457-.366l-1.92-.274-.823-1.737c-.183-.366-.777-.366-.96 0l-.914 1.737-1.829.274c-.265.042-.465.269-.465.542 0 .144.055.275.146.372l1.371 1.371-.32 1.874c-.002.015-.002.033-.002.051a.5493.5493 0 0 0 .783.497l-.003.001 1.691-.914 1.691.914a.5493.5493 0 0 0 .78-.498c0-.018-.001-.036-.003-.053v.002l-.32-1.92 1.371-1.371c.183-.091.229-.32.137-.503zm-2.469 1.325c-.137.137-.183.32-.183.457l.183 1.143-1.006-.549c-.067-.032-.146-.05-.229-.05s-.162.018-.232.051l.003-.001-1.006.549.183-1.143c0-.137 0-.32-.137-.457l-.823-.777 1.097-.183c.183 0 .32-.137.457-.274l.457-1.006.503.96c.091.137.229.274.411.274l1.097.183-.777.777zm-3.382 14.675h-1.097v1.051h1.097v-1.006zm0 2.148h-1.097v1.051h1.097v-1.051zm1.051-1.097h-1.051v1.097H27.2v-1.097zm-2.149 0H24v1.097h1.051v-1.097zm-2.651 4.8h-1.051v1.097H22.4v-1.097zm0 2.149h-1.051v1.051H22.4v-1.051zm1.051-1.097H22.4v1.097h1.051v-1.097zm-2.102 0h-1.097v1.097h1.097v-1.097zM16 24.229h-1.051v1.097H16v-1.097zm0 2.148h-1.051v1.097H16v-1.097zm1.051-1.051H16v1.051h1.051v-1.051zm-2.102 0h-1.097v1.051h1.097v-1.051zm-9.098-19.2H4.8v1.051h1.051V6.126zm0 2.103H4.8v1.097h1.051V8.229zM6.949 7.177H5.852v1.097h1.097V7.177zm-2.149 0H3.749v1.097H4.8V7.177z"/><path fill="var(--color1, #212121)" d="M24.686 14.171c-.266-.377-.668-.643-1.132-.73l-.011-.002c-.457-.046-.96.091-1.371.366l-1.234.96-1.92 1.417-1.371-.549c2.403-1.128 4.037-3.528 4.037-6.309 0-3.81-3.067-6.904-6.867-6.948h-.004c-3.818.025-6.904 3.127-6.904 6.948 0 1.392.409 2.689 1.114 3.776l-.016-.027H5.944l-3.2 1.646-1.92.914H.733c-.524.317-.869.884-.869 1.531 0 .985.799 1.784 1.784 1.784.338 0 .653-.094.922-.257l-.008.004 1.371-.731 2.286-1.143H7.59L2.196 22.17.825 23.541c-.286.296-.462.699-.462 1.143s.176.847.462 1.143c.3.313.722.507 1.189.507s.889-.194 1.188-.507l.001-.001 1.371-1.28 1.691-1.28.914.914-1.783 1.737-1.28 1.371c-.299.298-.484.71-.484 1.166s.185.868.484 1.166c.305.302.725.488 1.189.488s.883-.186 1.189-.488l3.428-3.428 1.006-.96 5.166-5.714 3.474.503a.5057.5057 0 0 0 .278-.001l-.004.001.046-.046h.046l3.2-2.149.046-.046h.046l1.28-1.234c.345-.326.559-.786.559-1.297 0-.388-.124-.747-.334-1.04l.004.005zM2.194 17.783c-.183.091-.366.091-.594 0-.264-.114-.445-.373-.445-.673 0-.225.101-.426.261-.56l.001-.001 1.28-.64.32.914.137.457-.96.457zm3.475-1.829-1.554.777L3.841 16l-.183-.549 2.011-1.006v1.554zm15.085-6.628c0 .914-.183 1.783-.594 2.56L16 9.966a1.83 1.83 0 0 0-.771-1.368l-.006-.004 1.463-4.846c2.377.731 4.114 2.971 4.114 5.577zm-11.748 0c.032-3.232 2.66-5.841 5.897-5.841.226 0 .448.013.667.037l-.027-.002-1.417 4.709a2.4849 2.4849 0 0 0-.091-.002c-1.01 0-1.829.819-1.829 1.829v.002c-.013.081-.02.175-.02.271 0 1.01.819 1.829 1.829 1.829.779 0 1.444-.487 1.707-1.172l.004-.012 3.84 1.783c-1.088 1.432-2.791 2.347-4.709 2.347-3.23 0-5.854-2.597-5.897-5.818v-.004zm5.943.777c0 .457-.366.823-.823.823s-.777-.366-.777-.823.32-.777.777-.777.823.366.823.777zM2.514 25.189c-.229.183-.64.183-.869 0-.131-.11-.215-.274-.215-.457s.083-.347.214-.456l.001-.001.96-.914.869.823-1.006.96zm3.2 3.657c-.229.274-.594.274-.823 0a.5946.5946 0 0 1 .001-.823l.914-.914.457.366.457.457-1.006.914zm3.475-3.429-1.737 1.737-.457-.366-.411-.457 1.783-1.783.091-.137v-.183l.046-.091v-.183l-.137-.137v-.046l-1.6-1.6h-.091l-.091-.091h-.091l-.091-.046H6.22l-.091.046h-.183l-1.737 1.371-.914-.914 2.377-2.377 4.389 4.297-.914.914zm6.857-7.04H16a.5006.5006 0 0 0-.411.137v.046l-4.8 5.211-4.343-4.251 2.834-2.834a.5443.5443 0 0 0 .141-.367c0-.288-.222-.525-.505-.547H6.674v-1.6h3.109c1.266 1.312 3.039 2.127 5.003 2.127.445 0 .881-.042 1.303-.122l-.043.007.137.091 2.423.914.137.777.183.914-2.971-.457zm4.023.183-.32-1.554 1.463-1.051.366.457.549.777-2.057 1.371zm3.748-2.834-.823.823-.914-1.28.823-.594c.137-.137.32-.183.503-.183.372.037.661.349.661.728 0 .197-.078.375-.204.507z"/><path fill="var(--color1, #212121)" d="m13.623 18.56-2.194-2.149c-.229-.229-.549-.229-.777 0L8.503 18.56c-.087.097-.14.225-.14.366s.053.269.14.366l2.149 2.149c.099.1.237.161.389.161s.289-.062.389-.161l2.149-2.149c.087-.097.14-.225.14-.366s-.053-.269-.14-.366zm-2.56 1.737-1.371-1.371 1.371-1.371 1.371 1.371-1.371 1.371zm6.08-15.268-.229 1.097c.046 0 1.737.457 1.737 2.149h1.006c0-2.057-1.646-2.971-2.56-3.2zm2.56 4.297h-1.051v1.051h1.006V9.326z"/></symbol><symbol id="icon-clock" viewBox="0 0 32 32"><path fill="var(--color1, #212121)" d="M31.314 15.314v-.016C31.314 6.84 24.458-.016 16-.016S.686 6.84.686 15.298c0 6.859 4.51 12.665 10.726 14.615l.108.029c.137 0 .229-.046.366-.137.137-.046.229-.183.274-.366L16 17.233c1.058-.003 1.915-.861 1.915-1.92 0-1.06-.86-1.92-1.92-1.92-.297 0-.578.067-.829.188l.012-.005-5.12-5.12a.6447.6447 0 0 0-.457-.189c-.357 0-.646.289-.646.646 0 .179.072.34.189.457l5.12 5.12c-.114.235-.18.511-.18.802 0 .602.284 1.137.725 1.48l.004.003-3.657 11.703c-5.431-2.02-9.229-7.159-9.229-13.186 0-7.751 6.283-14.034 14.034-14.034s14.034 6.283 14.034 14.034c0 5.684-3.379 10.578-8.237 12.785l-.088.036-.366-1.874c-.057-.3-.317-.524-.63-.524-.162 0-.31.06-.423.159l.001-.001-3.84 3.429a.6394.6394 0 0 0 .224 1.095l.005.001 4.891 1.6c.058.019.125.03.195.03.353 0 .64-.287.64-.64 0-.043-.004-.085-.012-.126l.001.004-.366-1.829c5.527-2.379 9.326-7.778 9.326-14.065v-.016.001zM16 14.629c.353 0 .64.287.64.64s-.287.64-.64.64c-.353 0-.64-.287-.64-.64s.287-.64.64-.64zm2.103 14.857 2.194-1.966.594 2.834-2.789-.914z"/><path fill="var(--color2, #2196f3)" d="M15.36 3.2v1.28c0 .353.287.64.64.64s.64-.287.64-.64V3.2c0-.353-.287-.64-.64-.64s-.64.287-.64.64zM3.886 14.629c-.366 0-.663.297-.663.663s.297.663.663.663h1.28c.353 0 .64-.287.64-.64s-.287-.64-.64-.64h-1.28zm24.228 1.325c.353 0 .64-.287.64-.64s-.287-.64-.64-.64h-1.28c-.353 0-.64.287-.64.64s.287.64.64.64h1.28z"/></symbol><symbol id="icon-diagram" viewBox="0 0 32 32"><path fill="var(--color2, #2196f3)" d="M14.903 14.949H16v4.8h-1.097v-4.8zm4.297 2.148h1.051v2.651H19.2v-2.651zm-8.549 1.6h1.097v1.051h-1.097v-1.006zm-3.2-.548h1.097v1.6H7.451v-1.6z"/><path fill="var(--color1, #212121)" d="M1.6 28.297h25.6c.869 0 1.6-.731 1.6-1.6v-2.149c0-.914-.731-1.6-1.6-1.6h-.549V9.691l3.017-2.88c.213.112.465.178.733.178.884 0 1.6-.716 1.6-1.6s-.716-1.6-1.6-1.6c-.884 0-1.6.716-1.6 1.6 0 .234.05.455.14.655l-.004-.01-2.286 2.149V6.949c0-.869-.731-1.6-1.6-1.6H3.748c-.914 0-1.6.731-1.6 1.6v16h-.549c-.914 0-1.6.731-1.6 1.6v2.149c0 .914.731 1.6 1.6 1.6zM30.4 4.846a.5493.5493 0 0 1 .706.526.5493.5493 0 0 1-.71.525l.004.001c-.229-.07-.392-.279-.392-.526s.163-.456.388-.525l.004-.001zM3.2 6.949c0-.274.229-.503.549-.503h21.303c.274 0 .549.229.549.503v2.286l-1.097 1.006V8.047c0-.32-.229-.549-.503-.549h-19.2c-.274 0-.549.229-.549.549V21.35c0 .32.274.549.549.549h19.2c.274 0 .503-.229.503-.549v-9.646l1.097-1.006v12.251h-22.4v-16zM8 13.897h-.022c-.884 0-1.6.716-1.6 1.6s.716 1.6 1.6 1.6c.436 0 .831-.174 1.12-.457l1.829.914c.229.137.503.091.686-.091l3.931-4.434 3.84 2.88c.229.183.503.137.686 0l3.383-3.2v8.137H5.35V8.549h18.103v2.697l-3.749 3.566-3.931-2.926c-.229-.183-.549-.137-.731.046l-3.977 4.526-1.463-.777v-.137c0-.914-.686-1.6-1.554-1.6zm.549 1.6c0 .303-.246.549-.549.549s-.549-.246-.549-.549c0-.303.246-.549.549-.549s.549.246.549.549zm3.2 8.549h5.303v.503c0 .32-.229.549-.549.549h-4.251c-.274 0-.503-.229-.503-.549v-.503zm-10.698.503c0-.274.274-.503.549-.503h9.051v.503c0 .914.731 1.6 1.6 1.6h4.251c.914 0 1.6-.686 1.6-1.6v-.503h9.097c.274 0 .503.229.503.503v2.149c0 .274-.229.549-.503.549h-25.6c-.274 0-.549-.274-.549-.549v-2.149z"/></symbol><symbol id="icon-close" viewBox="0 0 18 18"><path d="M15 5.1079 13.8921 4 9.5 8.3921 5.1079 4 4 5.1079 8.3921 9.5 4 13.8921 5.1079 15 9.5 10.6079 13.8921 15 15 13.8921 10.6079 9.5 15 5.1079Z"/></symbol><symbol id="icon-client-1" viewBox="0 0 57 32"><path d="m20.267 3.733 3.738 3.538-6.938-.004v17.167H35.2V17.87l3.733 3.534V3.733H20.266zm14.769 13.722L24.439 7.423h10.597v10.032zm-3.29 4.468h-11.81V10.378h.835v10.763h10.975v.781zm-9.021 4.797-.436.899-.436-.899h-.366l.637 1.198v.698h.331v-.698l.635-1.198h-.364zm.549 1.896.154-.442h.734l.155.442h.344l-.717-1.896h-.296l-.716 1.896h.342zm.52-1.493.275.786h-.549l.275-.787zm1.737.74a.4252.4252 0 0 0-.071.238v.003c0 .16.056.29.168.389s.263.149.45.149c.188 0 .349-.051.485-.153l.107.126h.367l-.278-.33c.109-.149.164-.341.164-.574h-.275c0 .128-.027.244-.079.348l-.366-.432.129-.094a.7236.7236 0 0 0 .195-.195l.002-.003c.038-.061.06-.136.06-.216v-.01a.39.39 0 0 0-.132-.293.477.477 0 0 0-.32-.123h-.02.001c-.153 0-.274.044-.364.13s-.135.203-.135.352c0 .061.014.123.043.189.03.065.082.144.155.237-.14.101-.235.188-.282.261zm.856.42a.4782.4782 0 0 1-.299.107h-.015a.3092.3092 0 0 1-.212-.083.2856.2856 0 0 1-.085-.203v-.011.001c0-.101.052-.192.156-.271l.041-.029.414.489zm-.34-.84c-.09-.11-.134-.202-.134-.275 0-.063.019-.116.055-.157a.184.184 0 0 1 .139-.063h.015c.052 0 .1.02.135.054.037.035.056.077.056.126v.007c0 .071-.031.134-.08.177l-.041.032-.145.099zm3.086 1.03c.13-.114.205-.272.224-.474h-.328c-.018.135-.059.232-.124.29s-.163.087-.292.087c-.141 0-.249-.054-.323-.162s-.11-.264-.11-.469v-.167c.002-.203.041-.355.117-.46.077-.105.188-.157.331-.157.123 0 .217.03.28.091s.104.158.12.294h.328c-.021-.207-.095-.368-.222-.482s-.296-.171-.506-.171c-.155 0-.292.037-.411.111a.717.717 0 0 0-.27.31l-.002.005c-.06.133-.096.288-.096.451v.023-.001.177c.003.174.035.327.098.46s.151.234.266.306c.116.071.249.107.4.107.216 0 .389-.056.519-.169zm1.936-.266c.064-.141.097-.304.097-.49v-.125c0-.169-.036-.329-.102-.473l.003.007a.7277.7277 0 0 0-.274-.318l-.003-.002c-.119-.075-.256-.112-.411-.112s-.291.037-.411.113c-.119.075-.211.182-.277.324-.062.137-.098.297-.098.466v.025-.001.107c.001.181.034.341.099.48.066.139.159.246.279.322.121.075.258.112.411.112.156 0 .293-.037.412-.112.119-.076.212-.183.276-.323zm-.353-1.072c.08.112.119.274.119.484v.099c0 .213-.039.376-.118.487-.078.111-.19.167-.336.167h-.014a.3929.3929 0 0 1-.324-.17l-.001-.001c-.081-.114-.121-.275-.121-.483v-.109c.002-.204.043-.362.122-.473a.3896.3896 0 0 1 .321-.168h.014-.001c.146 0 .259.056.338.168z"/></symbol><symbol id="icon-client-2" viewBox="0 0 57 32"><path d="M26.727 3.165h-.073c-.112-.007-.224-.01-.336-.012h-.243c-.212 0-.428.005-.643.016-.007-.001-.016-.001-.024-.001s-.017 0-.025.001h.001c-2.059.12-3.971.635-5.699 1.47l.09-.039-.23.111V16.52l.54-.183c.474-.163.978-.309 1.5-.445 1.29-.345 2.775-.553 4.305-.573h.012v1.551c-.193.001-.38.006-.568.016h-.045c-1.212.068-2.348.25-3.442.537l.12-.027c-1.503.382-2.82.91-4.044 1.586l.087-.044V3.793c1.195-.71 2.578-1.289 4.042-1.665l.11-.024c1.173-.315 2.52-.499 3.91-.505h.231c.273.007.539.019.788.038.658.046 1.31.15 1.95.311v1.527c-.544-.133-1.19-.235-1.85-.282l-.039-.002-.038-.003c-.132-.011-.263-.022-.386-.022zm2.688 1.561c.339.026.689.038 1.044.038 1.464-.006 2.881-.198 4.231-.554l-.117.026c1.502-.383 2.819-.912 4.043-1.587l-.087.044v14.875c-1.196.71-2.578 1.289-4.043 1.665l-.11.024c-1.173.314-2.52.497-3.909.503h-.1c-1.02 0-2.01-.128-2.955-.368l.083.018V4.438c.229.053.466.102.706.142.332.059.748.111 1.17.142l.044.003zm7.57.116-.54.181c-.496.167-.997.316-1.5.449-1.344.36-2.888.569-4.48.575h-.004c-.352 0-.676-.01-.989-.03l-.43-.028v12.148l.37.032c.342.03.696.045 1.052.045 1.257-.006 2.473-.172 3.631-.48l-.1.023c1.058-.269 1.977-.608 2.847-1.031l-.088.039.231-.111V4.842zM19.06 24.113a.794.794 0 0 0-.573-.243c-.01 0-.02 0-.029.001h.001-.012c-.121 0-.236.024-.34.067l.006-.002a.7847.7847 0 0 0-.442.444l-.002.005a.8735.8735 0 0 0-.062.335v2.023c-.005.142.022.284.079.415.048.104.117.196.203.271a.721.721 0 0 0 .277.144c.099.027.201.042.302.042.113.001.224-.023.326-.07.304-.135.512-.434.512-.781v-.226h-.529v.191c0 .061-.012.119-.033.173l.001-.003a.315.315 0 0 1-.077.114.3673.3673 0 0 1-.221.077.2647.2647 0 0 1-.247-.108l-.001-.001a.478.478 0 0 1-.071-.251v-.021.001-1.887a.6429.6429 0 0 1 .065-.302.2702.2702 0 0 1 .227-.124c.011 0 .022.001.033.002h-.001.01c.092 0 .174.045.226.114l.001.001c.055.071.088.162.088.261v.011-.001.175h.523v-.215c0-.124-.024-.243-.067-.351l.002.006a.8375.8375 0 0 0-.177-.285zm3.142-.022a.9376.9376 0 0 0-.601-.223c-.108 0-.215.02-.316.057a.8376.8376 0 0 0-.483.443l-.002.005a.9397.9397 0 0 0-.077.392v1.94c-.004.137.023.272.077.397a.77.77 0 0 0 .205.271c.081.075.176.133.279.171.101.037.208.057.316.057a.9143.9143 0 0 0 .603-.229l-.001.001a.8312.8312 0 0 0 .199-.271.9345.9345 0 0 0 .077-.397v-1.958c0-.135-.029-.264-.08-.381l.002.006a.8761.8761 0 0 0-.199-.283zm-.247 2.615c.001.009.001.019.001.03 0 .099-.041.188-.106.251a.3874.3874 0 0 1-.499 0h.001a.3441.3441 0 0 1-.106-.25c0-.011 0-.022.002-.032v.001-1.941c-.001-.009-.001-.019-.001-.03 0-.098.041-.187.106-.25a.3874.3874 0 0 1 .499 0h-.001c.066.063.106.152.106.25 0 .011 0 .021-.001.032v-.001 1.941zm4.374.867v-3.675h-.508l-.668 1.945h-.009l-.674-1.945h-.503v3.674h.525v-2.235h.01l.514 1.58h.262l.518-1.58h.01v2.235h.525zm2.982-3.416a.7269.7269 0 0 0-.297-.201 1.1527 1.1527 0 0 0-.361-.057h-.8v3.675h.524v-1.435h.27c.163.007.325-.027.472-.1.12-.068.217-.163.286-.278l.002-.003a.893.893 0 0 0 .12-.32c.018-.116.028-.249.028-.385v-.035.002c.005-.176-.012-.353-.051-.525a.789.789 0 0 0-.193-.338zm-.27 1.12c-.002.07-.02.136-.049.194l.001-.003a.2963.2963 0 0 1-.134.128l-.002.001c-.065.03-.14.047-.22.047-.01 0-.019 0-.028-.001h.001-.239v-1.249h.27c.008 0 .016-.001.025-.001.077 0 .149.017.214.048l-.003-.001c.054.031.096.078.122.134l.001.002c.029.065.044.134.046.205v.244c0 .085.005.174 0 .252h-.005zm2.75-1.378h-.429l-.81 3.675h.524l.154-.789h.714l.154.789h.523l-.829-3.675zm-.483 2.384.258-1.332h.01l.256 1.332h-.523zm3.865-.171h-.01l-.79-2.213h-.503v3.675h.523v-2.21h.011l.8 2.209h.493v-3.674h-.523v2.213zm3.199-2.213-.421 1.461h-.011l-.421-1.461h-.554l.719 2.122v1.553h.524v-1.553l.719-2.121h-.555zM17.6 28.611h.252v.708h.171v-.708h.251v-.145H17.6v.146zm2.121-.146-.331.853h.182l.07-.194h.34l.073.194h.187l-.339-.853h-.182zm-.027.516.116-.316.116.316h-.232zm2.124.023h.197v.11a.3258.3258 0 0 1-.203.072H21.8a.2185.2185 0 0 1-.169-.081.3516.3516 0 0 1-.063-.203c0-.007 0-.013.001-.02v.001c0-.19.082-.285.245-.285.006-.001.012-.001.018-.001.084 0 .155.058.174.136v.001l.169-.033c-.036-.166-.156-.251-.362-.251h-.011c-.11 0-.211.042-.287.11a.4154.4154 0 0 0-.124.296c0 .011 0 .022.001.033v-.001.02c0 .115.041.22.11.301l-.001-.001c.075.078.181.126.297.126.009 0 .018 0 .027-.001h-.001.014c.134 0 .257-.052.348-.137v-.336h-.37v.144zm2.14-.539h-.172v.853h.597v-.145h-.425v-.708zm1.812 0h-.173v.853h.173v-.853zm1.769.57-.349-.57h-.167v.853h.161v-.557l.343.557h.171v-.853h-.158v.57zm1.601-.093h.425v-.145h-.425v-.187h.457v-.146h-.63v.853h.647v-.145h-.475v-.231zm3.88-.14h-.336v-.336h-.171v.853h.171v-.373h.336v.373h.172v-.853h-.172v.337zm1.609.14h.427v-.145h-.427v-.187h.459v-.146h-.629v.853h.646v-.145h-.475v-.231zm2.183.001c.149-.023.224-.102.224-.237.001-.007.001-.015.001-.024 0-.068-.033-.128-.085-.166h-.001a.4777.4777 0 0 0-.216-.051c-.012 0-.023 0-.035.001h.002-.362v.853h.172v-.357h.048c.034 0 .066.007.094.02l-.001-.001a.181.181 0 0 1 .061.062l.186.271h.205l-.104-.166a.5984.5984 0 0 0-.187-.203l-.002-.001zm-.173-.118h-.126v-.214h.135c.011-.001.023-.001.036-.001.049 0 .097.008.141.023l-.003-.001c.023.021.037.05.037.083 0 .037-.018.069-.045.09a.4643.4643 0 0 1-.142.021c-.011 0-.022 0-.033-.001h.002zm1.82.117h.425v-.145h-.425v-.187h.459v-.146h-.631v.853h.647v-.145h-.475v-.231z"/></symbol><symbol id="icon-client-3" viewBox="0 0 57 32"><path d="M19.417 26.187c.009 0 .017.002.025.005s.015.007.021.013l.116.111a.9644.9644 0 0 1-.327.211c-.129.048-.278.076-.434.076h-.032.002a1.213 1.213 0 0 1-.436-.071.9532.9532 0 0 1-.329-.2l.001.001a.8836.8836 0 0 1-.21-.302l-.002-.006a1.016 1.016 0 0 1-.075-.385v-.012.001-.021c0-.271.118-.515.304-.684l.001-.001c.1-.087.219-.155.349-.201.143-.048.296-.072.45-.07h.028c.139 0 .273.024.398.067l-.009-.003c.115.044.221.104.313.179l-.098.118a.1206.1206 0 0 1-.024.021.064.064 0 0 1-.034.009h-.006a.102.102 0 0 1-.043-.012l-.052-.032-.073-.041a.8226.8226 0 0 0-.225-.07l-.005-.001a1 1 0 0 0-.161-.013h-.013.001-.011c-.112 0-.219.02-.319.055l.007-.002a.7366.7366 0 0 0-.253.149.6729.6729 0 0 0-.165.237c-.038.089-.059.193-.059.302v.012-.001a.812.812 0 0 0 .059.318c.039.092.093.171.161.236.067.064.149.115.242.147.095.034.197.051.299.051.059.001.119-.003.178-.01.148-.015.28-.074.385-.164l-.001.001c.015-.012.034-.02.055-.02zm3.358-.558v.012c0 .138-.029.269-.081.387l.002-.006a.8636.8636 0 0 1-.218.304l-.001.001a1.01 1.01 0 0 1-.337.198l-.007.002c-.132.045-.284.071-.442.071s-.31-.026-.452-.074l.01.003a1.0161 1.0161 0 0 1-.342-.202l.001.001a.8925.8925 0 0 1-.219-.303l-.002-.006c-.05-.116-.078-.251-.078-.393s.029-.277.081-.4l-.003.007c.05-.115.125-.22.221-.309.097-.085.213-.15.341-.194.132-.046.284-.072.442-.072s.31.026.452.075l-.01-.003c.129.045.246.114.343.201.096.088.171.192.22.305.054.127.081.261.078.396zm-.305 0v-.017c0-.108-.02-.211-.058-.305l.002.006c-.071-.182-.216-.322-.396-.384l-.005-.001c-.096-.033-.206-.052-.321-.052s-.225.019-.329.054l.007-.002a.6902.6902 0 0 0-.246.15.6234.6234 0 0 0-.155.232l-.001.004c-.035.094-.055.202-.055.316s.02.222.058.322l-.002-.006c.071.182.216.322.398.383l.005.001c.207.068.435.068.643 0 .093-.033.178-.083.245-.148.07-.069.123-.149.156-.236a.8166.8166 0 0 0 .055-.316zm2.597.331.031.07c.011-.025.021-.048.033-.07a.5764.5764 0 0 1 .038-.069l.743-1.174c.015-.02.028-.033.043-.037s.033-.007.051-.007h.23v1.909h-.26v-1.463c-.001-.01-.001-.021-.001-.033s0-.023.001-.035v.002l-.748 1.19a.111.111 0 0 1-.043.043h-.001c-.018.01-.04.016-.063.016H25.076a.1339.1339 0 0 1-.063-.016h.001a.111.111 0 0 1-.043-.043v-.001l-.77-1.198v1.532h-.251v-1.905h.229c.018 0 .036.002.053.007h-.001c.018.008.032.021.041.037l.759 1.175c.015.021.028.044.038.068zm2.796-.095v.715h-.29v-1.906h.649c.123-.002.245.012.362.042.094.023.181.064.256.119.062.049.112.112.144.184l.001.003c.034.078.051.161.049.244v.012a.53.53 0 0 1-.209.422l-.001.001a.748.748 0 0 1-.258.126 1.208 1.208 0 0 1-.327.044h-.024l-.351-.005zm0-.205h.352c.076.001.153-.009.226-.029a.4881.4881 0 0 0 .164-.083l-.001.001a.365.365 0 0 0 .133-.283v-.004c0-.006.001-.013.001-.021 0-.049-.011-.095-.03-.137l.001.002a.3711.3711 0 0 0-.101-.13l-.001-.001a.621.621 0 0 0-.345-.104c-.016 0-.032.001-.048.002h.002-.352v.786zm3.909.922h-.233a.1115.1115 0 0 1-.06-.018.116.116 0 0 1-.038-.044v-.001l-.197-.461h-.994l-.205.461a.0989.0989 0 0 1-.036.042.1083.1083 0 0 1-.062.019h-.233l.872-1.909h.302l.884 1.909zm-1.44-.708h.821l-.347-.777a1.324 1.324 0 0 1-.065-.179l-.034.1a.755.755 0 0 1-.034.087l.002-.006-.343.775zm2.697-1.191c.017.008.032.02.044.034l1.272 1.439v-1.482h.26v1.909h-.148c-.02 0-.04-.004-.057-.012h.001a.1602.1602 0 0 1-.046-.035l-1.271-1.438c.001.01.001.021.001.033s0 .023-.001.034v-.002 1.419h-.26v-1.909h.154c.018 0 .036.003.052.009zm3.719 1.14v.758h-.291v-.757l-.804-1.15h.267c.021 0 .04.006.056.016a.175.175 0 0 1 .039.043l.503.742c.034.049.064.105.087.164l.002.005.038-.082c.014-.03.03-.059.049-.087l.496-.747a.2021.2021 0 0 1 .037-.04.0952.0952 0 0 1 .057-.019h.269l-.805 1.155zM24.923 21.47c.127.014.255.025.384.035 1.963-.763 3.622-2.011 4.772-3.588s1.739-3.415 1.694-5.282l-2.162-1.878c.439 1.988.234 4.043-.594 5.935s-2.245 3.547-4.094 4.779z"/><path d="m24.151 21.382.058.011c1.975-1.228 3.481-2.942 4.323-4.922s.981-4.133.4-6.181l-3.08-2.676c1.245 2.199 1.747 4.661 1.445 7.099-.301 2.437-1.392 4.75-3.147 6.669zm10.445-6.541c-.523 2.052-1.794 3.902-3.623 5.276-.5.38-1.063.737-1.657 1.043l-.064.03c1.49-.38 2.859-1.053 4.002-1.966s2.03-2.042 2.592-3.3l-1.249-1.084z"/><path d="m34.106 14.539-1.778-1.545c-.034 1.762-.611 3.483-1.669 4.986s-2.562 2.732-4.352 3.559h.009c.399 0 .797-.021 1.194-.062 1.673-.594 3.151-1.538 4.302-2.748s1.94-2.65 2.295-4.189zm-9.697-8.054L22.287 4.64c-1.897.637-3.527 1.756-4.68 3.212s-1.772 3.179-1.778 4.946c.007 1.952.763 3.846 2.149 5.383 1.385 1.536 3.321 2.628 5.501 3.101 1.946-2.06 3.085-4.605 3.252-7.266s-.647-5.299-2.323-7.531zm14.599 7.769c-.007-2.316-1.07-4.535-2.955-6.173s-4.439-2.561-7.105-2.567h-.021c-1.281 0-2.512.213-3.66.606l.079-.024 12.989 11.286c.423-.919.671-1.995.672-3.128z"/></symbol><symbol id="icon-client-4" viewBox="0 0 57 32"><path d="M12.878 11.255h-.002c-1.279 0-2.316.921-2.316 2.058v.002c0 1.137 1.037 2.058 2.316 2.058h.002c1.279 0 2.316-.922 2.316-2.058v-.001c0-1.137-1.037-2.059-2.316-2.059zm17.093-.658c-.004-1.579-.711-3.092-1.967-4.209s-2.958-1.745-4.734-1.749c-1.777.003-3.481.631-4.737 1.748s-1.964 2.63-1.968 4.209v8.706s13.405-1.327 13.406-8.704v-.002zM5.867 22.16c.003 1.099.496 2.151 1.37 2.928s2.058 1.214 3.294 1.218c1.236-.003 2.42-.441 3.294-1.218s1.366-1.829 1.37-2.927v-6.058s-9.327.924-9.327 6.057zm4.663 1.085c-.242 0-.477-.063-.678-.183-.195-.115-.35-.281-.447-.48l-.003-.007c-.059-.121-.093-.264-.093-.415 0-.075.009-.148.025-.219l-.001.007c.047-.211.163-.404.334-.556s.388-.255.625-.297c.072-.013.154-.021.239-.021.168 0 .328.03.476.085l-.009-.003c.223.082.414.221.548.4s.206.388.206.603c.001.143-.03.285-.092.417-.066.139-.155.256-.263.352l-.001.001a1.238 1.238 0 0 1-.397.236c-.139.053-.3.083-.467.083h-.001v-.004zm9.426-.598h-.9v.93h-.469v-2.276h1.482v.38h-1.013v.588h.9v.378zm2.253-.156c0 .224-.039.42-.118.589s-.193.299-.341.391a.9218.9218 0 0 1-.489.138h-.019.001c-.188 0-.356-.045-.505-.136a.917.917 0 0 1-.341-.382l-.002-.006c-.078-.165-.123-.358-.123-.561v-.021.001-.112c0-.224.04-.421.12-.591.082-.171.195-.302.342-.392.148-.092.316-.138.506-.138s.357.046.505.138c.148.091.262.221.342.392.081.17.122.366.122.589v.101zm-.475-.103c0-.238-.043-.42-.128-.544a.4173.4173 0 0 0-.348-.186h-.019.001-.018c-.144 0-.271.073-.346.183l-.001.001c-.085.122-.128.301-.13.538v.111c0 .232.043.412.128.54s.209.192.369.192h.018c.143 0 .269-.073.343-.183l.001-.001c.084-.124.127-.304.128-.541v-.111zm1.995.592v-.013c0-.077-.037-.145-.093-.189h-.001c-.062-.048-.175-.098-.338-.15-.15-.047-.277-.1-.399-.163l.014.006c-.259-.14-.388-.328-.388-.564 0-.123.035-.233.103-.328.069-.097.169-.172.299-.227s.276-.081.437-.081c.162 0 .307.029.434.089.127.059.226.141.295.249.071.107.107.229.107.365h-.469c0-.104-.032-.185-.098-.242-.066-.059-.158-.087-.276-.087-.115 0-.204.025-.267.074a.2282.2282 0 0 0-.096.185v.006c0 .074.037.136.111.186.075.05.185.097.33.14.267.08.461.18.583.299s.183.267.183.444c0 .197-.075.352-.224.464s-.349.167-.601.167c-.175 0-.334-.032-.478-.096a.7707.7707 0 0 1-.328-.261l-.002-.002a.6722.6722 0 0 1-.112-.373v-.015.001h.47c0 .251.15.377.45.377.111 0 .198-.022.261-.067a.2226.2226 0 0 0 .093-.182v-.009zm2.502-1.298h-.697v1.895h-.469v-1.895h-.686v-.38h1.853v.38zm1.637.909h-.9v.61h1.056v.377h-1.525v-2.276h1.522v.38h-1.053v.542h.9v.367zm1.274.153h-.373v.833H28.3v-2.276h.845c.269 0 .476.06.622.18s.219.289.219.508c0 .155-.034.285-.101.389a.6895.6895 0 0 1-.3.245l-.005.002.492.93v.021h-.503l-.427-.832zm-.373-.38h.379c.117 0 .208-.029.273-.089.06-.059.097-.141.097-.231v-.018.001c0-.108-.03-.192-.092-.253s-.154-.092-.28-.092h-.377v.683zm2.84.411v.802h-.469v-2.276h.888c.171 0 .321.031.45.094.13.062.23.151.3.267.069.115.105.245.105.392 0 .223-.077.399-.229.528-.153.128-.363.193-.633.193h-.411zm0-.379h.419c.124 0 .219-.029.283-.087.066-.059.099-.142.099-.25v-.017c0-.098-.037-.187-.099-.254-.066-.068-.156-.104-.272-.106h-.43v.715zm2.965.195h-.9v.61h1.056v.377h-1.525v-2.276h1.522v.38h-1.053v.542h.9v.367zm2.176-.909h-.697v1.895h-.469v-1.895h-.687v-.38h1.853v.38zm1.637.909h-.899v.61h1.056v.377h-1.525v-2.276h1.522v.38h-1.053v.542h.9v.367zm1.274.153h-.373v.833h-.469v-2.276h.846c.269 0 .476.06.622.18s.219.289.219.508c0 .155-.034.285-.101.389a.6866.6866 0 0 1-.301.245l-.005.002.492.93v.021h-.503l-.427-.832zm-.374-.38h.378c.117 0 .209-.029.273-.089a.324.324 0 0 0 .097-.232v-.018.001c0-.108-.03-.192-.092-.253-.06-.061-.154-.092-.279-.092h-.377v.683zm2.755.616v-.013c0-.077-.037-.146-.094-.189h-.001c-.062-.048-.175-.098-.338-.15-.15-.047-.278-.1-.399-.163l.014.006c-.259-.14-.388-.328-.388-.564 0-.123.035-.233.103-.328.07-.097.17-.172.299-.227.13-.054.276-.081.437-.081.163 0 .307.029.435.089.127.059.226.141.295.249.071.107.107.229.107.365h-.469c0-.104-.032-.185-.098-.242-.066-.059-.158-.087-.276-.087-.115 0-.204.025-.267.074a.2282.2282 0 0 0-.096.185v.006c0 .074.037.136.111.186.075.05.185.097.33.14.267.08.461.18.583.299s.183.267.183.444c0 .197-.075.352-.224.464-.148.111-.349.167-.601.167-.175 0-.334-.032-.478-.096a.7707.7707 0 0 1-.328-.261l-.002-.002a.6722.6722 0 0 1-.112-.373v-.015.001h.47c0 .251.15.377.45.377.111 0 .198-.022.261-.067a.2226.2226 0 0 0 .093-.182v-.009z"/></symbol><symbol id="icon-client-5" viewBox="0 0 57 32"><path d="M14.27 23.859c.13.147.199.332.196.521a.7562.7562 0 0 1-.072.365l.002-.005a.8297.8297 0 0 1-.232.296l-.002.001c-.221.152-.494.243-.789.243-.032 0-.064-.001-.096-.003h.004-1.549v-3.301h1.517a1.377 1.377 0 0 1 .846.222l-.005-.003c.098.076.176.171.227.277.051.108.074.224.068.341.009.181-.053.361-.176.505-.118.131-.281.222-.462.258.205.034.391.134.523.283zm-1.816-.498h.649a.655.655 0 0 0 .412-.11.3855.3855 0 0 0 .109-.144l.001-.003c.019-.043.03-.092.03-.145 0-.011-.001-.022-.001-.033v.001c.001-.008.001-.018.001-.028 0-.053-.011-.104-.031-.15l.001.002a.3989.3989 0 0 0-.108-.147h-.001a.665.665 0 0 0-.373-.113c-.018 0-.036.001-.054.002h.002-.638v.867zm1.124 1.266c.051-.04.091-.091.118-.149l.001-.003a.3697.3697 0 0 0 .034-.158c0-.009 0-.018-.001-.027v.001c0-.007.001-.016.001-.024 0-.059-.013-.115-.037-.165l.001.002a.4093.4093 0 0 0-.121-.151l-.001-.001a.7054.7054 0 0 0-.397-.121c-.015 0-.03 0-.045.001h.002-.68v.908h.689c.155.008.308-.032.435-.115zm3.793.651-.843-1.291h-.317v1.291h-.726v-3.302h1.374c.029-.002.064-.003.098-.003.323 0 .622.107.862.287l-.004-.003c.192.179.308.415.327.666a.761.761 0 0 1 .002.069c0 .241-.086.461-.228.633l.001-.002c-.171.175-.396.296-.649.335l-.006.001.899 1.319h-.789zm-1.161-1.74h.594c.412 0 .619-.166.619-.5 0-.008.001-.017.001-.027 0-.063-.013-.122-.035-.176l.001.003a.4937.4937 0 0 0-.118-.171.6797.6797 0 0 0-.47-.133h.003-.601l.007 1.005zm5.129 1.075h-1.446l-.255.665h-.761l1.328-3.265h.823l1.323 3.265h-.761l-.25-.665zm-.194-.499-.529-1.394-.529 1.394h1.057zm5.16 1.164h-.72l-1.616-2.245v2.245h-.719v-3.302h.719l1.616 2.259v-2.259h.72v3.302zm4.113-.79c-.149.249-.376.452-.652.582-.28.132-.608.209-.955.209-.021 0-.041 0-.062-.001h.003-1.282v-3.302h1.283c.018 0 .039-.001.06-.001.345 0 .673.075.968.209l-.015-.006c.276.128.503.329.652.576.148.269.226.565.226.867s-.077.597-.226.866zm-.825-.079c.196-.205.317-.482.318-.788 0-.289-.113-.569-.318-.788a1.3165 1.3165 0 0 0-.906-.281h.004-.5v2.138h.5c.025.002.054.003.083.003.311 0 .596-.107.822-.285l-.003.002zm-7.803-20.8s9.3 3.215 9.103 7.867v7.869s-9.294-3.216-9.1-7.869l-.003-7.867zm17.389 13.894c1.757-1.107 3.788-1.792 5.909-1.994v-2.464c-2.444.863-4.517 2.427-5.909 4.458z"/><path d="M38.124 18.245c1.437-2.651 3.93-4.696 6.964-5.716V5.431s-13.245 4.58-12.965 11.205v11.203s.59-.205 1.519-.589c0-.358 0-.719.043-1.083.274-3.075 1.87-5.925 4.439-7.924z"/><path d="M36.864 22.407c.069-.777.225-1.546.463-2.294-1.599 1.725-2.568 3.867-2.769 6.122-.02.213-.03.426-.036.645 1.105-.483 1.942-.895 2.761-1.334l-.214.105a10.6241 10.6241 0 0 1-.206-3.244zm.526.04c-.026.272-.041.588-.041.907 0 .719.075 1.42.216 2.096l-.012-.066c3.619-1.983 7.685-5.046 7.528-8.748v-.323c-2.586.265-5.004 1.3-6.885 2.946-.415.932-.702 2.014-.804 3.148l-.003.04z"/></symbol><symbol id="icon-client-6" viewBox="0 0 57 32"><path d="M28.493 14.618a1.5626 1.5626 0 0 1-.322-1.065v.005-1.538c0-.471.107-.829.321-1.075.213-.245.581-.367 1.101-.366.489 0 .837.105 1.042.313.224.266.333.591.308.919v.362h-.875v-.366c.003-.119-.005-.239-.026-.358a.3405.3405 0 0 0-.125-.212l-.001-.001a.499.499 0 0 0-.279-.084c-.013 0-.026.001-.039.001h.002c-.011-.001-.025-.001-.038-.001-.11 0-.212.033-.297.09l.002-.001a.4153.4153 0 0 0-.145.232v.003c-.022.105-.035.226-.035.351v.031-.002 1.866c-.014.18.025.36.112.524.045.056.104.1.172.126l.003.001a.4798.4798 0 0 0 .228.029H29.6a.433.433 0 0 0 .037.001c.102 0 .197-.032.274-.087l-.002.001a.37.37 0 0 0 .13-.224v-.002c.02-.124.03-.249.027-.374v-.379h.875v.346a1.397 1.397 0 0 1-.305.969l.002-.003c-.201.228-.544.342-1.047.342s-.884-.122-1.1-.375zm3.644.016c-.221-.24-.332-.588-.332-1.05v-1.618c0-.457.111-.803.332-1.037s.59-.351 1.109-.35c.515 0 .882.117 1.103.35.221.235.333.58.333 1.037v1.617c0 .457-.112.807-.337 1.049s-.59.361-1.1.361-.886-.122-1.109-.359zm1.516-.389a.9025.9025 0 0 0 .105-.478v-1.981a.872.872 0 0 0 .002-.053c0-.152-.039-.296-.107-.421l.002.005a.4248.4248 0 0 0-.176-.128l-.003-.001a.4727.4727 0 0 0-.171-.031c-.021 0-.042.001-.062.004h.002a.53.53 0 0 0-.059-.004c-.062 0-.121.011-.176.032l.003-.001a.4157.4157 0 0 0-.179.128l-.001.001c-.08.147-.116.308-.105.469v1.99c-.011.165.025.329.105.479.051.05.114.091.185.118a.6222.6222 0 0 0 .454-.002l-.004.001a.5632.5632 0 0 0 .185-.118v-.01zm2.082-3.619h.942l.708 2.984.725-2.984h.916l.093 4.307h-.678l-.073-2.994-.699 2.994h-.544l-.724-3.005-.067 3.005h-.685l.085-4.307zm4.441 0h1.468c.845 0 1.268.407 1.268 1.223 0 .781-.445 1.171-1.335 1.17h-.5v1.914h-.906l.005-4.308zm1.254 1.841c.09.01.18.003.267-.021s.165-.062.231-.115c.104-.146.15-.316.131-.486a1.3248 1.3248 0 0 0-.046-.4l.002.009a.3172.3172 0 0 0-.067-.119.3864.3864 0 0 0-.112-.085l-.002-.001a.9167.9167 0 0 0-.357-.071c-.017 0-.033 0-.05.001h.002-.351v1.287h.352zm2.789-1.841h.973l.998 4.307h-.845l-.197-.993h-.868l-.203.993h-.857l.998-4.307zm.831 2.816-.339-1.808-.339 1.808h.677zm1.946-2.816h.635l1.213 2.457v-2.457h.752v4.307h-.603l-1.221-2.565v2.565h-.777l.002-4.307zm4.361 2.665-1.009-2.659h.85l.616 1.708.578-1.708h.832l-.997 2.659v1.642h-.869V13.29zm-21.465 3.526v.225h-.739v1.75h-.31v-1.75H28.1v-.225h1.792zm2.318 1.976h-.246a.1052.1052 0 0 1-.061-.019.1004.1004 0 0 1-.039-.045v-.001l-.214-.469h-1.026l-.213.469a.1258.1258 0 0 1-.033.053.1083.1083 0 0 1-.062.019h-.245l.906-1.975h.315l.917 1.968zm-1.501-.734h.855l-.363-.804a1.2783 1.2783 0 0 1-.064-.176l-.003-.01c-.013.037-.023.074-.034.105l-.033.083-.358.803zm3.062.539c.057.003.114.003.171 0 .049-.004.097-.012.145-.023.052-.011.096-.023.139-.038l-.008.002c.04-.014.08-.031.122-.049v-.444h-.366a.0755.0755 0 0 1-.046-.016c-.006-.004-.01-.01-.014-.016a.0342.0342 0 0 1-.004-.018v-.153h.703v.757c-.11.068-.237.123-.372.158l-.01.002c-.075.019-.15.033-.227.041s-.168.012-.259.012h-.017c-.159 0-.312-.027-.455-.077l.01.003c-.14-.049-.26-.119-.364-.208l.002.001a.9524.9524 0 0 1-.231-.307l-.002-.006c-.053-.117-.083-.253-.083-.397v-.013.001-.012c0-.145.03-.283.084-.407l-.003.007a.9235.9235 0 0 1 .232-.312l.001-.001c.103-.089.227-.158.363-.205.155-.051.32-.076.485-.074.084 0 .169.005.252.017.074.011.146.027.215.05.064.02.124.047.181.078.055.031.108.065.158.103l-.087.122a.073.073 0 0 1-.029.026.0933.0933 0 0 1-.042.011.111.111 0 0 1-.057-.016h.001a.892.892 0 0 1-.094-.05l.005.003a.8139.8139 0 0 0-.115-.052l-.006-.002a1.0266 1.0266 0 0 0-.16-.043l-.007-.001a1.3396 1.3396 0 0 0-.218-.017h-.013.001-.011c-.121 0-.238.02-.346.057l.008-.002a.773.773 0 0 0-.267.157l.001-.001a.6718.6718 0 0 0-.166.241l-.002.005c-.038.098-.061.211-.061.329s.022.232.063.336l-.002-.006c.039.093.101.178.181.249.074.068.164.121.264.156.115.034.237.047.359.039zm2.888-.031h.989v.225h-1.291v-1.975h.309l-.007 1.75zm2.018.226h-.309v-1.975h.309v1.975zm1.153-1.966c.019.009.034.021.047.036l1.324 1.489c-.001-.011-.001-.023-.001-.035s0-.025.001-.037v.002-1.472h.27v1.984h-.166a.14.14 0 0 1-.058-.012h.001a.162.162 0 0 1-.048-.037l-1.323-1.488v1.536h-.259v-1.975h.161c.018 0 .035.003.051.009zm3.923-.01v.217h-1.098v.652h.89v.21h-.89v.674h1.098v.218h-1.417v-1.971h1.417zm-32.467-12.2 13.757 3.372v11.818l-13.757-3.371V4.616zm-.882-1.008V17.01l15.52 3.806V7.417L10.404 3.61z"/><path d="M18.722 27.036 3.2 23.227V9.828l15.522 3.807v13.401z"/><path d="m10.661 4.465 13.578 3.33-5.774 4.987L4.886 9.45l5.776-4.986zm-.257-.856L3.2 9.828l15.522 3.808 7.202-6.22-15.52-3.807zm9.192 22.673 6.329-5.466-6.329-1.552v7.019z"/></symbol></defs></svg>